<svg width="218" height="56" viewBox="0 0 268 56" fill="none" xmlns="http://www.w3.org/2000/svg">
<path fill-rule="evenodd" clip-rule="evenodd" d="M21.8813 22.9428C25.1923 10.9436 35.24 2.21832 47.1204 2.21736L49.3198 2.21718C60.0915 2.2163 69.2185 10.0397 72.3513 20.8534C74.7323 20.9881 77.0636 21.6251 79.196 22.7278C81.6088 23.9755 83.6993 25.7845 85.2983 28.0084C86.8972 30.2323 87.9597 32.8086 88.3997 35.5287C88.8398 38.2488 88.645 41.0364 87.8312 43.6658C87.0174 46.2953 85.6074 48.6926 83.7154 50.6639C81.8233 52.6352 79.5024 54.125 76.9404 55.0127C74.3784 55.9005 71.6473 56.1612 68.9682 55.7739C66.2891 55.3866 63.7373 54.362 61.5193 52.7831C61.4082 52.7041 61.3027 52.6198 61.203 52.5309C57.692 54.7368 53.6359 55.9958 49.3154 55.9962L15.7834 55.9965C7.06649 55.9972 0.000651133 48.4459 0.00140554 39.1302C0.00215995 29.8145 7.06922 22.2621 15.7861 22.2614L17.221 22.2612C18.836 22.2611 20.3991 22.4986 21.8813 22.9428ZM47.1198 9.65347L49.3192 9.65329C58.065 9.65258 66.2132 17.7392 66.2123 29.1053C66.2113 40.4714 58.0619 48.5593 49.316 48.5601L34.437 48.5613L34.4377 40.6608C34.4381 35.099 32.1296 30.1138 28.4806 26.74C30.4448 16.5723 38.4628 9.65417 47.1198 9.65347ZM20.7556 30.4284C20.7965 30.4822 20.9574 30.5514 21.2054 30.6336C24.5907 32.2843 27.1393 35.9849 27.1389 40.6614L27.1383 48.5594L15.784 48.5603C11.4229 48.5607 7.2997 44.6773 7.30015 39.1296C7.3006 33.5819 11.4244 29.6978 15.7855 29.6975L17.2204 29.6974C18.4398 29.6973 19.6376 29.953 20.7556 30.4284ZM66.9918 47.4657C67.9343 47.9399 68.9477 48.2602 69.9949 48.4116C71.5395 48.6349 73.1141 48.4845 74.5912 47.9727C76.0684 47.4609 77.4065 46.6019 78.4974 45.4654C79.5882 44.3288 80.4012 42.9466 80.8704 41.4306C81.3396 39.9146 81.4519 38.3074 81.1982 36.7391C80.9444 35.1708 80.3319 33.6855 79.41 32.4033C78.4881 31.1211 77.2829 30.0781 75.8917 29.3588C75.1331 28.9664 74.3307 28.6764 73.5049 28.4935C73.509 28.6967 73.511 28.9004 73.511 29.1047C73.5104 36.2032 71.0351 42.6595 66.9918 47.4657Z" fill="url(#paint0_linear_4024_6)"/>
<path d="M84.5389 12.5489C87.9652 12.5486 90.743 9.73933 90.7433 6.27418C90.7436 2.80903 87.9662 0.000193043 84.5399 0.00047181C81.1135 0.000750577 78.3357 2.81004 78.3354 6.27519C78.3351 9.74034 81.1125 12.5492 84.5389 12.5489Z" fill="url(#paint1_linear_4024_6)"/>
<path d="M253.055 44.8804C249.884 44.8804 247.071 44.1654 244.615 42.7354C242.159 41.2743 240.231 39.2846 238.832 36.7665C237.433 34.2173 236.734 31.2951 236.734 27.9998C236.734 24.7045 237.433 21.7978 238.832 19.2797C240.231 16.7305 242.143 14.7409 244.568 13.3108C247.024 11.8497 249.837 11.1191 253.008 11.1191C255.247 11.1191 257.33 11.5233 259.257 12.3316C261.184 13.1088 262.863 14.2124 264.293 15.6424C265.754 17.0414 266.873 18.6579 267.651 20.4921L261.728 22.6838C261.2 21.5335 260.5 20.5387 259.63 19.6994C258.76 18.8289 257.765 18.1605 256.646 17.6942C255.526 17.1968 254.314 16.9481 253.008 16.9481C251.112 16.9481 249.418 17.43 247.925 18.3937C246.464 19.3263 245.314 20.6164 244.475 22.2641C243.666 23.9117 243.262 25.8236 243.262 27.9998C243.262 30.1759 243.682 32.1034 244.521 33.7821C245.361 35.4298 246.527 36.7354 248.019 37.6992C249.511 38.6318 251.221 39.0981 253.148 39.0981C254.485 39.0981 255.697 38.8494 256.785 38.352C257.905 37.8235 258.884 37.1085 259.723 36.207C260.594 35.3054 261.293 34.264 261.822 33.0826L267.744 35.2277C266.967 37.124 265.848 38.8028 264.386 40.2639C262.956 41.725 261.278 42.8597 259.35 43.668C257.423 44.4763 255.324 44.8804 253.055 44.8804Z" fill="#fff"/>
<path d="M218.727 44.8809C215.431 44.8809 212.509 44.1659 209.96 42.7359C207.442 41.2747 205.468 39.2851 204.038 36.767C202.608 34.2178 201.893 31.3111 201.893 28.0469C201.893 24.7205 202.608 21.7983 204.038 19.2802C205.468 16.731 207.426 14.7414 209.913 13.3113C212.431 11.8813 215.322 11.1663 218.587 11.1663C221.882 11.1663 224.773 11.8968 227.26 13.3579C229.778 14.788 231.752 16.7776 233.182 19.3268C234.612 21.8449 235.327 24.7516 235.327 28.0469C235.327 31.3111 234.612 34.2178 233.182 36.767C231.783 39.2851 229.825 41.2747 227.307 42.7359C224.82 44.1659 221.96 44.8809 218.727 44.8809ZM218.727 39.052C220.716 39.052 222.457 38.5857 223.949 37.653C225.473 36.6893 226.654 35.3836 227.493 33.736C228.364 32.0883 228.799 30.192 228.799 28.0469C228.799 25.8708 228.364 23.9589 227.493 22.3112C226.623 20.6636 225.426 19.3734 223.903 18.4408C222.379 17.4771 220.607 16.9952 218.587 16.9952C216.628 16.9952 214.872 17.4771 213.317 18.4408C211.794 19.3734 210.597 20.6636 209.727 22.3112C208.856 23.9589 208.421 25.8708 208.421 28.0469C208.421 30.192 208.856 32.0883 209.727 33.736C210.597 35.3836 211.81 36.6893 213.364 37.653C214.918 38.5857 216.706 39.052 218.727 39.052Z" fill="#fff"/>
<path d="M171.243 44.3206V11.6785H177.911L193.859 33.5953V11.6785H200.201V44.3206H193.859L177.631 21.9841V44.3206H171.243Z" fill="#fff"/>
<path d="M155.618 32.0571C155.618 29.539 156.099 27.4561 157.063 25.8084C158.058 24.1608 159.317 22.9328 160.84 22.1245C162.395 21.3163 164.011 20.9121 165.69 20.9121V26.881C164.26 26.881 162.908 27.0519 161.633 27.3939C160.389 27.7359 159.379 28.2954 158.602 29.0726C157.825 29.8498 157.436 30.8446 157.436 32.0571H155.618ZM151.281 44.3212V21.0054H157.436V44.3212H151.281Z" fill="#fff"/>
<path d="M126.183 44.3206V11.6785H132.338V39.9839L132.012 44.3206H126.183ZM139.38 44.8802C137.421 44.8802 135.758 44.3828 134.39 43.388C133.053 42.3932 132.028 40.9787 131.313 39.1445C130.598 37.3103 130.24 35.1497 130.24 32.6627C130.24 30.1446 130.598 27.984 131.313 26.1809C132.028 24.3467 133.053 22.9322 134.39 21.9374C135.758 20.9426 137.421 20.4452 139.38 20.4452C141.525 20.4452 143.375 20.9426 144.929 21.9374C146.514 22.9322 147.742 24.3467 148.613 26.1809C149.483 27.984 149.919 30.1446 149.919 32.6627C149.919 35.1497 149.483 37.3103 148.613 39.1445C147.742 40.9787 146.514 42.3932 144.929 43.388C143.375 44.3828 141.525 44.8802 139.38 44.8802ZM137.794 39.2378C138.914 39.2378 139.893 38.958 140.732 38.3984C141.603 37.8388 142.287 37.0616 142.784 36.0668C143.281 35.072 143.53 33.9373 143.53 32.6627C143.53 31.3881 143.281 30.2534 142.784 29.2586C142.318 28.2638 141.649 27.5021 140.779 26.9736C139.939 26.4141 138.96 26.1343 137.841 26.1343C136.784 26.1343 135.836 26.4141 134.996 26.9736C134.157 27.5332 133.504 28.3104 133.038 29.3052C132.572 30.2689 132.338 31.3881 132.338 32.6627C132.338 33.9373 132.572 35.072 133.038 36.0668C133.504 37.0616 134.142 37.8388 134.95 38.3984C135.789 38.958 136.737 39.2378 137.794 39.2378Z" fill="#fff"/>
<path d="M118.085 44.3202L117.899 39.6104V32.5224C117.899 31.1235 117.743 29.9266 117.433 28.9318C117.153 27.937 116.687 27.1753 116.034 26.6468C115.412 26.0872 114.557 25.8075 113.469 25.8075C112.474 25.8075 111.573 26.0251 110.764 26.4603C109.956 26.8955 109.272 27.5639 108.712 28.4655L103.303 26.6002C103.738 25.6054 104.376 24.6417 105.215 23.709C106.054 22.7453 107.143 21.9681 108.479 21.3775C109.847 20.7557 111.51 20.4448 113.469 20.4448C115.832 20.4448 117.79 20.8956 119.345 21.7971C120.93 22.6987 122.096 23.9733 122.842 25.6209C123.619 27.2375 123.992 29.1649 123.961 31.4033L123.821 44.3202H118.085ZM111.557 44.8798C108.759 44.8798 106.583 44.258 105.029 43.0145C103.505 41.771 102.744 40.0146 102.744 37.7452C102.744 35.2581 103.567 33.3929 105.215 32.1494C106.894 30.8748 109.241 30.2375 112.257 30.2375H118.179V34.8074H114.402C112.381 34.8074 110.982 35.0561 110.205 35.5535C109.428 36.0198 109.039 36.6882 109.039 37.5586C109.039 38.2426 109.35 38.7866 109.972 39.1907C110.593 39.5638 111.464 39.7503 112.583 39.7503C113.609 39.7503 114.51 39.5172 115.288 39.0508C116.096 38.5534 116.733 37.9317 117.199 37.1856C117.666 36.4084 117.899 35.6156 117.899 34.8074H119.391C119.391 37.9783 118.785 40.4498 117.573 42.2218C116.391 43.9938 114.386 44.8798 111.557 44.8798Z" fill="#fff"/>
<defs>
<linearGradient id="paint0_linear_4024_6" x1="0.0021019" y1="27.5985" x2="88.5293" y2="25.7616" gradientUnits="userSpaceOnUse">
<stop offset="0.425" stop-color="#00AAFF"/>
<stop offset="1" stop-color="#00AAFF"/>
</linearGradient>
<linearGradient id="paint1_linear_4024_6" x1="78.3354" y1="6.2742" x2="90.7433" y2="6.27323" gradientUnits="userSpaceOnUse">
<stop offset="0.405" stop-color="#FF9933"/>
<stop offset="1" stop-color="#FF9933"/>
</linearGradient>
</defs>
</svg>
